<?xml version="1.0" encoding="UTF-8"?>
<svg width="980px" height="605px" viewBox="0 0 980 605" version="1.1" xmlns="http://www.w3.org/2000/svg" xmlns:xlink="http://www.w3.org/1999/xlink">
    <!-- Generator: Sketch 48.2 (47327) - http://www.bohemiancoding.com/sketch -->
    <title>Slice 1</title>
    <desc>Created with Sketch.</desc>
    <defs></defs>
    <g id="Page-1" stroke="none" stroke-width="1" fill="none" fill-rule="evenodd">
        <g id="Group-2" transform="translate(363.000000, 156.000000)">
            <g id="noun_71340_cc" transform="translate(68.000000, 73.000000)" fill="#343334">
                <g id="Group">
                    <g transform="translate(0.951220, 43.700000)" id="Shape">
                        <polygon points="73.8412683 103.8458 37.0480976 93.9962 0.78 83.8179 1.80921951 80.1566 38.0525854 90.3292 71.1550244 99.187 97.6179512 0.8962 101.291561 1.8823"></polygon>
                    </g>
                    <g transform="translate(0.048780, 0.000000)" id="Shape">
                        <path d="M116.39761,2.9387 C115.817366,2.0628 114.635951,1.8234 113.758927,2.4029 C107.642585,6.4461 104.024146,5.3099 99.0150244,3.7424 C94.6945854,2.3915 89.3163902,0.7043 81.368,2.3649 C78.0824878,3.0508 75.3201463,4.3143 72.9763415,5.878 L69.4359024,0.8012 L26.5777561,20.8899 L0.152878049,119.3783 L35.1120976,128.7377 L70.0732195,138.0933 L96.4980976,39.603 L75.1698537,9.0244 C77.1350732,7.7077 79.435122,6.6494 82.1441951,6.0851 C89.1299512,4.6278 93.5759512,6.0205 97.8792683,7.3676 C103.204195,9.0339 108.238049,10.6128 115.863024,5.5721 C116.740049,4.9926 116.977854,3.8146 116.39761,2.9387 L116.39761,2.9387 Z M69.9000976,68.0954 L60.5039512,66.849 C60.7075122,63.8812 59.7867317,61.586 57.7359024,59.9615 L53.9747805,73.9778 C59.2997073,77.0672 62.6727317,80.1262 64.0900488,83.1567 C65.5073659,86.1891 65.6995122,89.6376 64.6626829,93.5098 C63.5002927,97.8323 61.2154634,101.1307 57.7967805,103.3879 C54.3838049,105.6489 50.2536098,106.4944 45.4080976,105.9111 L43.6102927,112.6143 L38.4052195,111.2216 L40.1554634,104.697 C36.1527317,103.0877 33.2039512,100.6481 31.3110244,97.3744 C29.4180976,94.1007 28.7465366,90.0157 29.2906341,85.1156 L38.9283902,86.6204 C38.797122,88.6344 39.0729756,90.4717 39.7540488,92.1418 C40.4332195,93.8081 41.3349756,95.1267 42.4612195,96.0938 L46.4905854,81.0781 C42.1587317,78.4846 39.265122,75.5377 37.8021463,72.2412 C36.3391707,68.9447 36.1299024,65.3575 37.1686341,61.4872 C38.2206829,57.5694 40.34,54.6092 43.5322927,52.6047 C46.7245854,50.604 50.4305366,49.9523 54.6558537,50.6458 L55.6089756,47.0985 L60.8102439,48.4893 L59.8590244,52.0366 C63.5440488,53.5091 66.2226829,55.6181 67.8987317,58.356 C69.572878,61.0996 70.2368293,64.3429 69.9000976,68.0954 L69.9000976,68.0954 Z M71.3040976,26.8521 C70.0808293,31.4102 65.3894146,34.1139 60.8254634,32.8941 C56.2634146,31.6724 53.5543415,26.9889 54.7757073,22.4308 C55.8848293,18.3059 59.8361951,15.7295 63.9587805,16.176 C63.1901951,17.6371 62.5966341,19.0013 62.1742927,20.1318 C60.4963415,20.4567 59.0580976,21.6879 58.5824878,23.4492 C57.9242439,25.9059 59.3872195,28.4329 61.8470732,29.0903 C64.3088293,29.7496 66.8390732,28.2904 67.4992195,25.8337 C67.9881463,24.0154 67.3070732,22.1629 65.9297073,21.0533 C66.344439,20.0159 66.9094634,18.7828 67.6342927,17.4775 C70.6858049,19.4307 72.2914634,23.1661 71.3040976,26.8521 L71.3040976,26.8521 Z"></path>
                        <path d="M51.2752195,84.0098 L47.5274146,97.9919 C49.4108293,98.1363 51.0925854,97.6955 52.5726829,96.6733 C54.0527805,95.6473 55.0325366,94.2394 55.5138537,92.4439 C55.9438049,90.8422 55.8391707,89.3374 55.2056585,87.9238 C54.5721463,86.5159 53.2632683,85.2087 51.2752195,84.0098 L51.2752195,84.0098 Z"></path>
                        <path d="M49.2281951,70.8637 L52.555561,58.4605 C51.0145854,58.5612 49.6733659,59.0704 48.5280976,59.9938 C47.3809268,60.9172 46.6237561,62.0743 46.2527805,63.4575 C45.9122439,64.7248 45.9788293,66.0035 46.454439,67.2974 C46.9262439,68.5894 47.8508293,69.7788 49.2281951,70.8637 L49.2281951,70.8637 Z"></path>
                    </g>
                </g>
            </g>
            <path d="M127.299363,4.04145188 L3.5,75.5170474 L3.5,218.468239 L127.299363,289.943834 L251.098726,218.468239 L251.098726,75.5170474 L127.299363,4.04145188 Z" id="Polygon" stroke="#343334" stroke-width="7"></path>
        </g>
    </g>
</svg>